<svg xmlns="http://www.w3.org/2000/svg" enable-background="new 0 0 100 100" viewBox="0 0 100 100"><path d="M87,5c-4.4,0-8,3.6-8,8c0,1.5,0.4,2.9,1.1,4.1l-5.6,5.6c-1.7-1.5-3.5-3-5.4-4.2L69,18.5c-4-2.5-8.3-4.1-12.9-4.9
	C54,13.2,52,13,50,13c-5.8,0-11.2,1.3-16.3,3.9c-3,1.5-5.7,3.5-8.1,5.7L20,17c0.7-1.2,1.1-2.6,1.1-4.1c0-4.4-3.6-8-8-8
	c-4.4,0-8,3.6-8,8c0,4.4,3.6,8,8,8c1.5,0,2.9-0.4,4.1-1.1l5.7,5.7c-0.4,0.5-0.9,1-1.2,1.5l-0.1,0.1c-2.8,3.7-4.9,7.8-6.1,12.3v0.1
	C14.4,42.8,14,45.8,14,49c0,1.2,0.1,2.5,0.2,3.7c0.5,4.6,1.8,9.1,4,13.2c0,0,0,0.1,0.1,0.1c1.3,2.4,2.8,4.6,4.6,6.6
	c1.8,2,3.8,3.9,5.9,5.5c1.5,1.1,3.1,2.1,4.7,2.9H19v-3c0-3.9-3.1-7-7-7s-7,3.1-7,7s3.1,7,7,7h3v8c0,1.1,0.9,2,2,2s2-0.9,2-2v-8h31
	c4.5,0,9-0.9,13.2-2.5c5-2,9.5-5.1,13.1-9C82.5,66.8,86,58.1,86,49c0-6.8-1.9-13.4-5.5-19.2c-0.9-1.5-2-2.9-3.2-4.2L83,20
	c1.2,0.7,2.6,1.1,4.1,1.1c4.4,0,8-3.6,8-8C95,8.6,91.4,5,87,5z M13,17c-2.2,0-4-1.8-4-4s1.8-4,4-4s4,1.8,4,4S15.2,17,13,17z M15,81
	h-3c-1.7,0-3-1.4-3-3c0-1.7,1.3-3,3-3s3,1.3,3,3V81z M50,17c1.3,0,2.6,0.1,4,0.2c0,0.6,0,1.2,0,1.8c0,2.4-0.3,4.8-0.8,7.1
	C49,23,44.7,20.5,40,18.6C43.2,17.5,46.5,17,50,17z M34.7,21c6.3,2.1,12,5.2,17.2,9.4c-1,2.6-2.2,5-3.8,7.2
	C42,32.2,34.7,28.6,26.8,27C29,24.6,31.8,22.5,34.7,21z M23.9,30.5c8.1,1.3,15.5,4.7,21.7,10c-1.8,2-3.9,3.8-6.2,5.2
	C33.8,41.3,27,38.6,19.9,38C20.9,35.5,22.2,33,23.9,30.5z M18,50.8c0-0.6,0-1.2,0-1.8c0-2.3,0.3-4.7,0.8-6.9
	c6,0.3,11.9,2.4,16.8,5.9C30.2,50.5,24.2,51.5,18,50.8z M22,63c-0.3,0-0.5,0-0.8,0c-1.3-2.6-2.2-5.3-2.7-8.2C19.7,55,20.8,55,22,55
	c6.4,0,12.7-1.7,18.3-5c3.7-2.2,7-5,9.7-8.3c2.8-3.4,4.9-7.3,6.2-11.5C57.4,26.6,58,22.8,58,19c0-0.3,0-0.7,0-1
	c2.8,0.7,5.5,1.8,7.9,3.2c-0.3,6-1.8,11.7-4.3,17c-1.8,3.7-4.1,7.2-6.9,10.2C52,51.3,49,53.8,45.8,56C38.7,60.6,30.5,63,22,63z
	 M49,74c0,2.3-0.3,4.6-0.8,6.9c-4.5-0.2-8.9-1.4-12.8-3.4c4.7-1.1,9.2-2.7,13.6-4.9C49,73.1,49,73.5,49,74z M60.7,79.1
	c-2.7,1-5.5,1.6-8.4,1.8c0.5-2.3,0.7-4.6,0.7-6.9c0-1.2-0.1-2.4-0.2-3.5c2.6-1.5,5-3.2,7.3-5.1c0.6,2.9,0.9,5.8,0.9,8.7
	C61,75.8,60.9,77.5,60.7,79.1z M60,60.2c-3.1,2.9-6.6,5.4-10.3,7.5c-6,3.4-12.4,5.6-19.2,6.7c-2.7-2.1-5-4.6-6.9-7.4
	c8.7-0.3,17.1-2.9,24.4-7.6c3.6-2.3,6.9-5.1,9.7-8.2c3-3.3,5.6-7.1,7.5-11.1c2.5-5.1,4-10.5,4.6-16.2c2.7,2.1,5,4.6,6.9,7.5
	c-1.5,6.7-4.2,13-8,18.7C66.2,53.8,63.2,57.1,60,60.2z M64.9,77.3C65,76.2,65,75.1,65,74c0-4-0.5-7.9-1.5-11.7
	c2.3-2.2,4.4-4.5,6.2-7c1.8,5.1,2.9,10.5,3.1,16C70.5,73.8,67.8,75.8,64.9,77.3z M79.4,36.5C81,40.5,82,44.6,82,49
	c0,6.4-1.9,12.6-5.5,17.8c-0.6-5.3-2-10.5-4-15.5C75.5,46.8,77.8,41.8,79.4,36.5z M87,17c-2.2,0-4-1.8-4-4s1.8-4,4-4s4,1.8,4,4
	S89.2,17,87,17z"/></svg>